HIERARCHY
ROOT Hips
{
	OFFSET 52.255798 -4.200464 86.470596
	CHANNELS 6 Xposition Yposition Zposition Xrotation Yrotation Zrotation
	JOINT spine
	{
		OFFSET 0.000000 -0.393701 6.846367
		CHANNELS 3 Xrotation Yrotation Zrotation
		JOINT spine1
		{
			OFFSET 0.000000 -0.000001 9.496208
			CHANNELS 3 Xrotation Yrotation Zrotation
			JOINT spine2
			{
				OFFSET 0.000000 -0.000001 9.099091
				CHANNELS 3 Xrotation Yrotation Zrotation
				JOINT Neck
				{
					OFFSET 0.000000 -1.113784 23.361206
					CHANNELS 3 Xrotation Yrotation Zrotation
					JOINT Head
					{
						OFFSET 0.000000 -0.000001 7.058014
						CHANNELS 3 Xrotation Yrotation Zrotation
						End Site
						{
							OFFSET 0.000000 5.634188 17.084396
						}
					}
				}
				JOINT RightShoulder
				{
					OFFSET -3.831360 0.533489 9.826309
					CHANNELS 3 Xrotation Yrotation Zrotation
					JOINT RightArm
					{
						OFFSET 0.000000 -0.000002 12.888107
						CHANNELS 3 Xrotation Yrotation Zrotation
						JOINT RightArmRoll
						{
							OFFSET 0.000000 -0.000001 6.506165
							CHANNELS 3 Xrotation Yrotation Zrotation
							JOINT RightForeArm
							{
								OFFSET 0.000000 -0.000003 18.950104
								CHANNELS 3 Xrotation Yrotation Zrotation
								JOINT RightForeArmRoll
								{
									OFFSET 0.000000 -0.000001 7.300934
									CHANNELS 3 Xrotation Yrotation Zrotation
									JOINT RightHand
									{
										OFFSET 0.000000 -0.000002 14.651398
										CHANNELS 3 Xrotation Yrotation Zrotation
										End Site
										{
											OFFSET 0.000000 0.000000 0.100006
										}
									}
								}
							}
						}
					}
				}
				JOINT LeftShoulder
				{
					OFFSET 3.831360 0.533489 9.826309
					CHANNELS 3 Xrotation Yrotation Zrotation
					JOINT LeftArm
					{
						OFFSET 0.000000 -0.000002 12.888107
						CHANNELS 3 Xrotation Yrotation Zrotation
						JOINT LeftArmRoll
						{
							OFFSET 0.000000 -0.000001 6.506165
							CHANNELS 3 Xrotation Yrotation Zrotation
							JOINT LeftForeArm
							{
								OFFSET 0.000000 -0.000003 18.950104
								CHANNELS 3 Xrotation Yrotation Zrotation
								JOINT LeftForeArmRoll
								{
									OFFSET 0.000000 -0.000001 7.300934
									CHANNELS 3 Xrotation Yrotation Zrotation
									JOINT LeftHand
									{
										OFFSET 0.000000 -0.000002 14.651398
										CHANNELS 3 Xrotation Yrotation Zrotation
										End Site
										{
											OFFSET 0.000000 0.000000 0.100006
										}
									}
								}
							}
						}
					}
				}
			}
		}
	}
	JOINT RightUpLeg
	{
		OFFSET -6.068371 0.933477 -1.112778
		CHANNELS 3 Xrotation Yrotation Zrotation
		JOINT RightUpLegRoll
		{
			OFFSET 0.000000 -0.000003 17.179596
			CHANNELS 3 Xrotation Yrotation Zrotation
			JOINT RightLeg
			{
				OFFSET 0.000000 0.000003 -21.274300
				CHANNELS 3 Xrotation Yrotation Zrotation
				JOINT RightLegRoll
				{
					OFFSET 0.000000 -0.000003 21.343903
					CHANNELS 3 Xrotation Yrotation Zrotation
					JOINT RightFoot
					{
						OFFSET 0.000000 -0.000003 17.765198
						CHANNELS 3 Xrotation Yrotation Zrotation
						JOINT RightToeBase
						{
							OFFSET 0.000000 -0.000002 14.850807
							CHANNELS 3 Xrotation Yrotation Zrotation
							End Site
							{
								OFFSET 0.006294 0.829004 7.192139
							}
						}
					}
				}
			}
		}
	}
	JOINT LeftUpLeg
	{
		OFFSET 6.068371 0.933477 -1.112778
		CHANNELS 3 Xrotation Yrotation Zrotation
		JOINT LeftUpLegRoll
		{
			OFFSET 0.000000 -0.000003 17.179703
			CHANNELS 3 Xrotation Yrotation Zrotation
			JOINT LeftLeg
			{
				OFFSET 0.000000 -0.000004 21.274200
				CHANNELS 3 Xrotation Yrotation Zrotation
				JOINT LeftLegRoll
				{
					OFFSET 0.000000 -0.000003 21.541199
					CHANNELS 3 Xrotation Yrotation Zrotation
					JOINT LeftFoot
					{
						OFFSET 0.000000 -0.000003 17.567902
						CHANNELS 3 Xrotation Yrotation Zrotation
						JOINT LeftToeBase
						{
							OFFSET 0.000000 -0.000002 14.850800
							CHANNELS 3 Xrotation Yrotation Zrotation
							End Site
							{
								OFFSET -0.028210 0.829004 7.192139
							}
						}
					}
				}
			}
		}
	}
}
MOTION
Frames: 10
Frame Time: 0.041667
52.608608 -4.121986 86.654099 -1.842899 -0.184915 2.399310 -0.277996 -2.495231 0.650759 3.477927 -4.986067 1.315856 5.125411 -4.969950 1.375625 21.617641 28.177136 -1.789123 16.120642 -10.060059 0.523802 -5.569556 -35.860781 -4.162434 -70.289552 -137.772798 -83.505838 -0.000002 0.000001 -0.000005 54.544736 -2.552187 3.481766 -0.000004 0.000005 -3.002311 -5.000249 -7.998739 0.000169 -19.707939 59.912869 23.277198 -78.377602 133.331276 101.428712 0.000004 -0.000019 0.000003 66.081377 6.197769 -4.120260 0.000003 -0.000006 3.008851 -5.000208 7.998721 -0.000144 -13.715827 -178.329027 -1.829865 179.999991 -0.000005 -1.127004 155.982833 -3.297267 -1.291083 0.000000 0.000003 0.525750 72.997626 7.013896 1.476066 25.456858 -7.355619 -0.000013 -12.285869 179.493861 2.147313 -0.000003 -0.000004 -1.079840 -24.615384 0.566909 1.017503 -0.000004 0.000001 -0.751364 74.834797 -6.348228 -3.318925 25.456964 7.355614 0.000001 
52.628807 -4.125487 86.645798 -1.819655 -0.136523 2.322612 -0.292227 -2.491528 0.645756 3.449170 -4.978859 1.305115 5.096648 -4.962879 1.364800 21.503597 27.862177 -1.713145 16.131990 -9.802372 0.512170 -5.728054 -36.113338 -4.409568 -70.058118 -137.275710 -83.955244 0.000000 0.000000 -0.000001 55.113773 -2.213456 3.434391 -0.000003 0.000005 -3.002298 -5.000250 -7.998742 0.000171 -19.409839 59.703073 22.927502 -78.310304 133.977166 100.875412 0.000004 -0.000019 0.000001 65.562023 6.542194 -4.276315 0.000003 -0.000005 3.008850 -5.000208 7.998721 -0.000142 -13.724455 -178.368915 -1.852135 179.999991 -0.000005 -1.127003 156.025495 -3.298358 -1.289639 0.000000 0.000002 0.523517 72.971234 7.010814 1.487456 25.456858 -7.355620 -0.000013 -12.335162 179.449014 2.134216 -0.000004 -0.000004 -1.077740 -24.668044 0.557033 1.019326 -0.000004 0.000001 -0.754178 74.863169 -6.346108 -3.324541 25.456960 7.355614 0.000000 
52.645607 -4.139775 86.655190 -1.794783 -0.093585 2.245337 -0.306427 -2.486435 0.639612 3.420420 -4.968908 1.292107 5.067894 -4.953088 1.351671 21.388012 27.556837 -1.634075 16.145688 -9.555088 0.506438 -5.881325 -36.358125 -4.648503 -69.819471 -136.780576 -84.384672 0.000001 0.000000 -0.000003 55.674959 -1.873877 3.381283 -0.000002 0.000005 -3.002278 -5.000250 -7.998739 0.000171 -19.124813 59.498577 22.592483 -78.258996 134.616485 100.336702 0.000002 -0.000014 0.000002 65.047348 6.879597 -4.421767 0.000004 -0.000004 3.008848 -5.000208 7.998721 -0.000142 -13.738132 -178.402028 -1.873253 179.999991 -0.000005 -1.128001 156.061763 -3.298371 -1.289143 0.000000 0.000002 0.521467 72.947629 7.007137 1.500181 25.456860 -7.355620 -0.000013 -12.381151 179.410041 2.117954 -0.000004 -0.000004 -1.076120 -24.716233 0.554731 1.020995 -0.000005 0.000001 -0.756572 74.892505 -6.346879 -3.321388 25.456965 7.355615 0.000000 
52.638107 -4.142565 86.671600 -1.768151 -0.056720 2.167379 -0.320609 -2.479821 0.632232 3.391635 -4.955899 1.276640 5.039099 -4.940259 1.336049 21.270923 27.262324 -1.551408 16.161653 -9.319672 0.507397 -6.028580 -36.594504 -4.878158 -69.571740 -136.288543 -84.790884 -0.000003 0.000002 -0.000003 56.227412 -1.534363 3.322849 -0.000002 0.000006 -3.002272 -5.000250 -7.998739 0.000171 -18.853539 59.300249 22.273033 -78.224668 135.248496 99.814479 0.000001 -0.000013 0.000001 64.538656 7.208671 -4.556461 0.000005 -0.000004 3.008851 -5.000209 7.998722 -0.000143 -13.757157 -178.429362 -1.892696 179.999991 -0.000005 -1.128001 156.090805 -3.295450 -1.287847 0.000001 0.000002 0.519628 72.927029 7.002795 1.514618 25.456853 -7.355619 -0.000012 -12.423328 179.378895 2.097701 -0.000004 -0.000004 -1.075030 -24.759366 0.561020 1.022509 -0.000004 0.000001 -0.758496 74.923214 -6.350940 -3.308193 25.456962 7.355614 -0.000000 
52.661808 -4.156075 86.657997 -1.740322 -0.025632 2.088921 -0.334620 -2.471718 0.623646 3.363116 -4.939941 1.258771 5.010573 -4.924513 1.317991 21.151462 26.977611 -1.465297 16.179774 -9.094648 0.514409 -6.170267 -36.822861 -5.098603 -69.313381 -135.799802 -85.175642 -0.000002 -0.000001 -0.000007 56.773407 -1.191236 3.258349 -0.000004 0.000004 -3.002254 -5.000250 -7.998743 0.000174 -18.594152 59.107651 21.966802 -78.201083 135.875535 99.295945 0.000002 -0.000018 0.000003 64.033536 7.532047 -4.681338 0.000004 -0.000005 3.008849 -5.000209 7.998721 -0.000143 -13.780622 -178.450891 -1.912179 179.999991 -0.000005 -1.127003 156.112771 -3.290521 -1.287165 -0.000000 0.000002 0.518081 72.909749 6.997526 1.531404 25.456860 -7.355620 -0.000013 -12.461990 179.353596 2.072661 -0.000004 -0.000004 -1.074420 -24.798139 0.576572 1.023901 -0.000005 0.000001 -0.759911 74.955145 -6.358424 -3.284383 25.456959 7.355615 0.000000 
52.675606 -4.155704 86.662598 -1.711810 0.000607 2.010238 -0.348323 -2.462355 0.613978 3.335150 -4.921432 1.238760 4.982582 -4.906243 1.297756 21.029097 26.700350 -1.376507 16.199687 -8.877068 0.525987 -6.307525 -37.044682 -5.310968 -69.047134 -135.312441 -85.547327 0.000001 -0.000001 -0.000003 57.315922 -0.840835 3.186735 -0.000003 0.000004 -3.002241 -5.000250 -7.998742 0.000172 -18.343933 58.919684 21.670500 -78.183809 136.500306 98.770676 0.000002 -0.000015 0.000001 63.528956 7.852931 -4.797931 0.000005 -0.000005 3.008855 -5.000208 7.998723 -0.000148 -13.807215 -178.468540 -1.932766 179.999991 -0.000005 -1.127003 156.128617 -3.281774 -1.286218 -0.000001 0.000002 0.516854 72.895638 6.991206 1.550731 25.456860 -7.355619 -0.000013 -12.497942 179.333174 2.042561 -0.000004 -0.000004 -1.074140 -24.834054 0.600700 1.025218 -0.000005 0.000001 -0.760842 74.987937 -6.368974 -3.251226 25.456959 7.355614 -0.000000 
52.690708 -4.167525 86.660896 -1.682502 0.022321 1.931325 -0.361765 -2.451821 0.603291 3.307634 -4.900563 1.216724 4.955059 -4.885642 1.275472 20.904028 26.430001 -1.285314 16.221322 -8.666393 0.541718 -6.440593 -37.260355 -5.515732 -68.770818 -134.827347 -85.902497 0.000002 0.000000 -0.000004 57.854762 -0.484105 3.107988 -0.000004 0.000006 -3.002231 -5.000247 -7.998744 0.000173 -18.102330 58.735816 21.383558 -78.173366 137.122113 98.240633 -0.000002 -0.000016 0.000002 63.024689 8.170627 -4.906429 0.000003 -0.000006 3.008851 -5.000210 7.998724 -0.000142 -13.836836 -178.482337 -1.953950 179.999991 -0.000004 -1.126006 156.139040 -3.270136 -1.285369 -0.000000 0.000002 0.515893 72.884027 6.984092 1.572282 25.456854 -7.355619 -0.000013 -12.531690 179.317655 2.008124 -0.000003 -0.000004 -1.074169 -24.867018 0.632393 1.026477 -0.000005 0.000001 -0.761341 75.021336 -6.382197 -3.209677 25.456964 7.355614 0.000000 
52.706806 -4.177645 86.658798 -1.652240 0.039835 1.852219 -0.374996 -2.440199 0.591648 3.280483 -4.877514 1.192784 4.927892 -4.862886 1.251256 20.776537 26.166019 -1.192040 16.244457 -8.462098 0.561200 -6.569695 -37.470281 -5.713348 -68.486922 -134.343633 -86.244635 0.000000 -0.000003 -0.000003 58.390017 -0.121981 3.022093 -0.000002 0.000004 -3.002224 -5.000250 -7.998740 0.000171 -17.868863 58.555840 21.105472 -78.170176 137.740272 97.707803 0.000002 -0.000017 0.000001 62.520478 8.484599 -5.006967 0.000003 -0.000006 3.008851 -5.000208 7.998724 -0.000141 -13.869578 -178.492254 -1.975262 179.999991 -0.000005 -1.124995 156.144613 -3.255639 -1.284589 -0.000001 0.000002 0.515148 72.874751 6.976291 1.595582 25.456858 -7.355620 -0.000013 -12.563617 179.306017 1.970335 -0.000005 -0.000004 -1.074490 -24.897223 0.670637 1.027696 -0.000004 0.000001 -0.761462 75.055214 -6.397747 -3.160903 25.456960 7.355615 0.000000 
52.722008 -4.185455 86.659302 -1.620900 0.053469 1.772933 -0.388067 -2.427565 0.579107 3.253614 -4.852453 1.167064 4.900995 -4.838131 1.225236 20.646762 25.908089 -1.096978 16.269031 -8.263613 0.584041 -6.695094 -37.674886 -5.904331 -68.195197 -133.861462 -86.573160 0.000000 0.000000 -0.000003 58.921583 0.244591 2.929143 -0.000003 0.000005 -3.002200 -5.000247 -7.998743 0.000175 -17.643171 58.379505 20.835900 -78.177266 138.353528 97.178285 0.000004 -0.000016 0.000000 62.015932 8.794270 -5.099694 0.000004 -0.000004 3.008852 -5.000207 7.998723 -0.000143 -13.905359 -178.498306 -1.996201 179.999991 -0.000005 -1.123998 156.145911 -3.240106 -1.283646 -0.000001 0.000002 0.514564 72.867436 6.967957 1.620079 25.456856 -7.355619 -0.000013 -12.594044 179.299269 1.929689 -0.000004 -0.000004 -1.075100 -24.924670 0.714420 1.028880 -0.000005 0.000001 -0.761258 75.089406 -6.415221 -3.105953 25.456960 7.355614 0.000001 
52.751106 -4.185925 86.654701 -1.588341 0.063548 1.693482 -0.401021 -2.414022 0.565732 3.226930 -4.825553 1.139682 4.874300 -4.811560 1.197531 20.514985 25.655560 -1.000406 16.295004 -8.070400 0.609853 -6.817027 -37.874628 -6.089169 -67.895168 -133.380740 -86.887513 -0.000002 -0.000004 -0.000003 59.449290 0.614688 2.829200 -0.000004 0.000005 -3.002189 -5.000247 -7.998740 0.000174 -17.424692 58.206292 20.574253 -78.194021 138.961606 96.652730 0.000000 -0.000016 -0.000000 61.510867 9.099042 -5.184802 0.000003 -0.000006 3.008849 -5.000209 7.998718 -0.000144 -13.944257 -178.500505 -2.016277 179.999991 -0.000005 -1.123001 156.143507 -3.223582 -1.283524 0.000000 0.000002 0.514090 72.861630 6.959305 1.645533 25.456856 -7.355620 -0.000013 -12.623352 179.295457 1.887392 -0.000005 -0.000004 -1.075970 -24.949660 0.762728 1.030041 -0.000004 0.000001 -0.760779 75.123598 -6.434325 -3.045907 25.456964 7.355614 0.000000 
